<?xml version="1.0" encoding="iso-8859-1"?>
<!-- Generator: Adobe Illustrator 17.1.0, SVG Export Plug-In . SVG Version: 6.00 Build 0)  -->
<!DOCTYPE svg PUBLIC "-//W3C//DTD SVG 1.1//EN" "http://www.w3.org/Graphics/SVG/1.1/DTD/svg11.dtd">
<svg version="1.1" id="Capa_1" xmlns="http://www.w3.org/2000/svg" xmlns:xlink="http://www.w3.org/1999/xlink" x="0px" y="0px"
	 viewBox="0 0 420.527 420.527" style="enable-background:new 0 0 420.527 420.527;" xml:space="preserve">
<g>
	<path d="M349.712,118.105c-3.473,0-6.738,1.353-9.193,3.808c-5.067,5.068-5.067,13.315,0.001,18.384
		c2.535,2.534,5.864,3.801,9.192,3.801c3.329,0,6.658-1.267,9.193-3.801c0,0,0-0.001,0-0.001c5.067-5.068,5.067-13.315-0.001-18.385
		C356.448,119.457,353.184,118.105,349.712,118.105z"/>
	<path d="M392.957,27.571C369.733,4.347,335.4-4.639,296.286,2.269c-37.81,6.677-75.831,27.553-107.06,58.782
		c-31.229,31.229-52.105,69.25-58.781,107.06c-4.568,25.868-2.187,49.641,6.668,69.495c-13.382,11.903-31.163,25.165-49.853,39.104
		c-26.007,19.397-52.9,39.455-72.784,59.338c-19.3,19.3-19.3,50.704,0,70.004c9.65,9.65,22.326,14.475,35.001,14.475
		c12.676,0,25.352-4.825,35.001-14.475c19.884-19.884,39.942-46.777,59.339-72.785c13.939-18.689,27.2-36.47,39.103-49.852
		c19.854,8.853,43.631,11.236,69.496,6.668c37.81-6.677,75.832-27.553,107.061-58.782c31.229-31.229,52.104-69.251,58.782-107.061
		C425.166,85.126,416.18,50.795,392.957,27.571z M127.786,321.31c-18.972,25.437-38.589,51.74-57.449,70.6
		c-11.501,11.502-30.217,11.502-41.719,0c-11.503-11.502-11.503-30.217,0-41.719c18.859-18.859,45.162-38.477,70.599-57.448
		c17.71-13.208,34.621-25.821,48.196-37.569c2.534,3.381,5.314,6.589,8.333,9.608c3.02,3.019,6.228,5.799,9.608,8.333
		C153.606,286.69,140.994,303.601,127.786,321.31z M398.563,120.764c-5.97,33.807-24.874,68.041-53.229,96.396
		c-28.354,28.355-62.589,47.258-96.396,53.229c-24.188,4.272-45.921,1.481-63.073-7.842c-0.247-0.151-0.5-0.29-0.757-0.417
		c-5.598-3.13-10.698-6.967-15.221-11.49c-4.523-4.523-8.358-9.62-11.488-15.218c-0.128-0.259-0.268-0.513-0.42-0.762
		c-9.321-17.151-12.111-38.884-7.84-63.071c5.97-33.807,24.874-68.042,53.229-96.397c28.354-28.355,62.589-47.258,96.396-53.229
		c32.502-5.739,60.576,1.274,79.05,19.749C397.289,60.188,404.303,88.262,398.563,120.764z"/>
	<path d="M204.871,125.226c2.535,2.534,5.863,3.8,9.192,3.8c3.329,0,6.658-1.267,9.191-3.8c2.456-2.455,3.809-5.721,3.809-9.193
		c0-3.473-1.353-6.738-3.807-9.192c-2.456-2.456-5.72-3.808-9.193-3.808c-3.472,0-6.736,1.352-9.193,3.808
		c-5.067,5.068-5.067,13.315,0,18.383C204.869,125.225,204.87,125.226,204.871,125.226z"/>
	<path d="M174.724,197.274c-5.067,5.068-5.067,13.315,0,18.383c0.001,0,0.001,0.001,0.001,0.001c2.456,2.455,5.72,3.807,9.192,3.807
		c3.473,0,6.737-1.352,9.191-3.806c2.456-2.455,3.809-5.721,3.809-9.194c0-3.473-1.353-6.738-3.808-9.192
		C188.042,192.205,179.795,192.206,174.724,197.274z"/>
	<path d="M364.784,72.888c-3.473,0-6.737,1.353-9.193,3.808c-5.067,5.068-5.067,13.315,0,18.383c2.456,2.456,5.72,3.808,9.193,3.808
		c3.473,0,6.737-1.352,9.192-3.808c0,0,0-0.001,0-0.001c5.067-5.068,5.067-13.315-0.001-18.385
		C371.521,74.24,368.256,72.888,364.784,72.888z"/>
	<path d="M49.477,358.051c-3.472,0-6.736,1.352-9.192,3.808c-5.068,5.068-5.069,13.315-0.001,18.384c0,0,0.001,0.001,0.001,0.001
		c2.456,2.455,5.72,3.807,9.192,3.807c3.473,0,6.737-1.353,9.191-3.806c2.456-2.455,3.809-5.72,3.809-9.194
		c0-3.473-1.353-6.738-3.807-9.192C56.214,359.403,52.95,358.051,49.477,358.051z"/>
	<path d="M334.64,68.743c3.473,0,6.737-1.353,9.193-3.808c5.067-5.068,5.067-13.315-0.001-18.385
		c-2.456-2.455-5.72-3.807-9.192-3.807c-3.473,0-6.737,1.352-9.193,3.808c-5.067,5.068-5.067,13.315,0,18.383
		C327.902,67.391,331.167,68.743,334.64,68.743z"/>
	<path d="M244.207,98.888c3.472,0,6.736-1.352,9.191-3.807c0.001,0,0.001,0,0.001-0.001c2.455-2.455,3.807-5.719,3.807-9.192
		c0-3.473-1.352-6.738-3.807-9.192c-2.456-2.456-5.72-3.808-9.193-3.808c-3.472,0-6.736,1.352-9.193,3.808
		c-5.067,5.068-5.067,13.315,0.001,18.385C237.47,97.536,240.734,98.888,244.207,98.888z"/>
	<path d="M298.616,61.624c-2.455-2.456-5.72-3.808-9.193-3.808c-3.472,0-6.736,1.352-9.193,3.808
		c-5.067,5.068-5.067,13.315,0.001,18.385c2.456,2.455,5.72,3.807,9.192,3.807c3.473,0,6.738-1.353,9.193-3.808
		C303.684,74.939,303.684,66.692,298.616,61.624z"/>
	<path d="M304.495,193.466c-3.473,0-6.737,1.353-9.193,3.808c-5.067,5.068-5.067,13.315,0,18.383
		c2.456,2.456,5.72,3.808,9.193,3.808c3.473,0,6.738-1.352,9.193-3.808c2.455-2.455,3.807-5.719,3.808-9.191
		c0-3.473-1.352-6.739-3.807-9.193C311.233,194.818,307.968,193.466,304.495,193.466z"/>
	<path d="M259.279,208.538c-3.472,0-6.736,1.352-9.193,3.808c-5.067,5.068-5.067,13.315,0,18.383l0.001,0.001
		c2.456,2.455,5.72,3.807,9.192,3.807c3.473,0,6.738-1.353,9.193-3.808c5.068-5.069,5.068-13.317,0-18.383
		C266.017,209.891,262.751,208.538,259.279,208.538z"/>
	<path d="M274.351,163.321c-3.472,0-6.736,1.352-9.193,3.808c-5.068,5.068-5.068,13.315-0.001,18.384l0.001,0.001
		c2.456,2.455,5.72,3.807,9.192,3.807c3.473,0,6.737-1.353,9.192-3.808c2.455-2.455,3.808-5.719,3.808-9.191
		c0-3.474-1.353-6.739-3.807-9.192C281.088,164.674,277.824,163.321,274.351,163.321z"/>
	<path d="M274.351,103.032c-3.472,0-6.736,1.352-9.193,3.808c-5.067,5.068-5.067,13.315,0.001,18.385
		c2.534,2.534,5.863,3.8,9.192,3.8c3.328,0,6.657-1.267,9.191-3.8c2.456-2.455,3.809-5.721,3.809-9.193
		c0-3.473-1.353-6.738-3.807-9.192C281.088,104.385,277.824,103.032,274.351,103.032z"/>
	<path d="M295.304,155.37c2.534,2.534,5.863,3.801,9.192,3.801c3.329,0,6.658-1.267,9.192-3.802l0-0.001
		c5.068-5.069,5.067-13.316,0-18.383c-2.456-2.456-5.72-3.808-9.193-3.808c-3.472,0-6.736,1.352-9.193,3.808
		C290.235,142.053,290.234,150.3,295.304,155.37z"/>
	<path d="M211.99,161.249c0-3.473-1.352-6.738-3.807-9.192c-2.456-2.456-5.72-3.808-9.193-3.808c-3.472,0-6.736,1.352-9.193,3.808
		c-5.067,5.068-5.067,13.315,0,18.383l0.001,0.001c2.456,2.455,5.72,3.807,9.192,3.807c3.473,0,6.737-1.353,9.191-3.806
		C210.637,167.987,211.99,164.722,211.99,161.249z"/>
	<path d="M334.64,163.321c-3.473,0-6.737,1.352-9.193,3.808c-5.068,5.069-5.067,13.316,0,18.383c2.455,2.456,5.72,3.808,9.193,3.808
		c3.472,0,6.737-1.352,9.192-3.808c0,0,0,0,0,0c5.068-5.069,5.068-13.315-0.001-18.385
		C341.376,164.673,338.112,163.321,334.64,163.321z"/>
	<path d="M214.062,223.61c-3.472,0-6.736,1.352-9.193,3.808c-5.067,5.068-5.067,13.315,0,18.383l0.001,0.002
		c2.456,2.455,5.72,3.807,9.192,3.807c3.473,0,6.737-1.352,9.191-3.807c2.456-2.456,3.809-5.72,3.809-9.193
		s-1.353-6.738-3.807-9.192C220.799,224.963,217.535,223.61,214.062,223.61z"/>
	<path d="M257.207,146.178c0-3.473-1.352-6.738-3.807-9.192c-2.456-2.456-5.72-3.808-9.193-3.808c-3.472,0-6.736,1.352-9.193,3.808
		c-5.068,5.069-5.067,13.316,0.001,18.384c0,0,0,0.001,0.001,0.001c2.456,2.455,5.72,3.807,9.192,3.807
		c3.473,0,6.737-1.353,9.192-3.808C255.854,152.914,257.206,149.65,257.207,146.178z"/>
	<path d="M229.134,178.394c-3.472,0-6.736,1.352-9.193,3.808c-5.068,5.068-5.068,13.315-0.001,18.384
		c0.001,0.001,0.001,0.001,0.001,0.001c2.456,2.455,5.72,3.807,9.192,3.807c3.473,0,6.737-1.353,9.192-3.808
		c2.455-2.455,3.807-5.719,3.808-9.191c0-3.474-1.353-6.739-3.807-9.192C235.872,179.746,232.607,178.394,229.134,178.394z"/>
	<path d="M328.761,110.152c5.067-5.068,5.067-13.315,0-18.383c-2.455-2.456-5.72-3.808-9.193-3.808
		c-3.472,0-6.736,1.352-9.193,3.808c-5.067,5.068-5.067,13.315,0.001,18.385c2.534,2.534,5.863,3.8,9.192,3.8
		C322.897,113.954,326.226,112.687,328.761,110.152C328.76,110.152,328.761,110.152,328.761,110.152z"/>
</g>
<g>
</g>
<g>
</g>
<g>
</g>
<g>
</g>
<g>
</g>
<g>
</g>
<g>
</g>
<g>
</g>
<g>
</g>
<g>
</g>
<g>
</g>
<g>
</g>
<g>
</g>
<g>
</g>
<g>
</g>
</svg>
